# xmcd
# Track frame offsets:
# 150
# 11932
# 32532
# 45772
# 60602
# 82580
# 100702
# 121185
#
# Disc length: 1814 seconds
# Revision: 0
# Processed by: cddbd v1.5PL3 Copyright (c) Steve Scherf et al.
# Submitted via: VisiTrax 2.9.9.209 - For more info visit www.synapsa.com
#
DISCID=4c071408
DTITLE=Easy Spirit (presents) various artists - The Spirit of Country
DYEAR=2002
DGENRE=
TTITLE0=Marina McBride - My Baby Loves Me
TTITLE1=Jamie O'Neal - You Rescued Me
TTITLE2=Pam Tillis - I Said a Prayer
TTITLE3=Chely Wright - Single White Female
TTITLE4=Carolyn Dawn Johnson - Georgia
TTITLE5=Shannon Brown - Baby I Lied
TTITLE6=Sara Evans - Four-Thirty
TTITLE7=Lorrie Morgan - I Didn't Know My Own Strength
EXTD=2002 BMG special products.
EXTT0=
EXTT1=
EXTT2=
EXTT3=
EXTT4=
EXTT5=
EXTT6=
EXTT7=
PLAYORDER=
